<svg xmlns="http://www.w3.org/2000/svg" version="1.1" xmlns:xlink="http://www.w3.org/1999/xlink" xmlns:svgjs="http://svgjs.com/svgjs" width="512" height="512"><svg version="1.1" id="SvgjsSvg1000" xmlns="http://www.w3.org/2000/svg" xmlns:xlink="http://www.w3.org/1999/xlink" x="0px" y="0px" viewBox="0 0 512 512" style="enable-background:new 0 0 512 512;" xml:space="preserve">
<style type="text/css">
	.st0{fill:#FBB03B;}
	.st1{fill:#EFA6C0;}
	.st2{fill:#FEE1EB;}
</style>
<circle class="st0" cx="330" cy="183.1" r="23.8"></circle>
<g>
	<path class="st1" d="M252.3,504.5c-40.2-11.1-72.6-52.5-80.6-102.9c-0.3-2.2-0.6-4.4-0.9-6.6c-1.9,1.1-3.9,2.1-5.8,3.1
		c-20.9,10.6-43.5,16.2-65.4,16.2c-25,0-48.2-7.5-65.2-21l-7.3-5.8l1.5-28.6L4.5,343.5l-0.4-9.4C2.2,292.4,31.5,248.8,77,225.6
		c1.8-0.9,3.5-1.8,5.3-2.6c-1.9-1.7-3.7-3.4-5.5-5.2C40.7,181.7,26.4,131.2,41,92.1l3.3-8.8l27.6-7.4l7.3-27.5l8.8-3.3
		c10.1-3.8,21.1-5.7,32.7-5.7c32.7,0,66.6,15.1,93,41.5c1.3,1.3,2.5,2.6,3.8,3.9c0.5-1,1-2,1.5-2.9c22.6-44.3,63.7-73,104.7-73
		c1.3,0,2.5,0,3.8,0.1l9.4,0.4l15.6,24l28.4-1.5l5.9,7.4c26,32.7,27.9,85.2,4.8,130.6c-0.9,1.9-1.9,3.7-2.9,5.5
		c3.3,0.3,6.7,0.7,10,1.3c50.4,8,91.7,40.4,102.9,80.7l2.5,9l-18,22.3l10.2,26.6l-5.2,7.9C472,352.1,434.2,370,392.4,370l0,0
		c-7.9,0-16-0.6-24-1.9c-2.1-0.3-4.2-0.7-6.2-1.1c0.3,1.5,0.6,3.1,0.8,4.7c8,50.4-10.1,99.7-44.9,122.8l-7.8,5.2l-26.7-10.2
		L261.3,507L252.3,504.5z"></path>
</g>
<g>
	<g>
		<path class="st2" d="M485.7,262.8c-9-32.6-43.5-60.4-88.1-67.5c-15.6-2.5-30.9-2.1-44.9,0.6c9.4-9.3,17.8-20.6,24.4-33.7
			c20.5-40.2,18.3-84.5-2.8-110.9l-29.5,1.6l-16.3-25c-33.8-1.5-70.9,22.7-91.4,62.9c-5.6,11.1-9.6,22.5-11.8,33.7
			c-5.8-10.6-13.3-20.8-22.6-30.1C170.7,62.5,128,51,96.3,62.9l-7.6,28.6L60,99.2c-11.9,31.7-0.3,74.4,31.6,106.4
			c10.3,10.3,21.7,18.4,33.5,24.4c-12.6,2.1-25.5,6.3-38,12.6c-40.2,20.5-64.4,57.6-62.9,91.4L49,350.1l-1.5,29.7
			c26.4,21.1,70.7,23.3,111,2.8c12.6-6.4,23.7-14.5,32.9-23.6c-2,12.8-2,26.5,0.2,40.5c7.1,44.6,34.9,79.1,67.5,88.1l23-18.7
			l27.8,10.6c28.2-18.6,44-60,37-104.7c-2.1-13.1-6-25.3-11.2-36.2c11.3,5.6,23.9,9.6,37.5,11.8c44.6,7.1,86-8.7,104.6-36.9
			L467,285.9L485.7,262.8z M298.6,224.9c-0.1-0.1-0.1-0.3-0.2-0.4c0.2,0,0.4,0,0.6-0.1C298.8,224.6,298.7,224.7,298.6,224.9z"></path>
	</g>
</g>
<path class="st1" d="M320.9,245.1c-5.3,0-9.8,3-12.1,7.3h-38.9c-0.5-1.8-1.1-3.6-2-5.3l27.8-27.8c4.7,1.4,10,0.3,13.7-3.4
	c5.4-5.4,5.4-14,0-19.4s-14-5.4-19.4,0c-3.7,3.7-4.8,9-3.4,13.7l-27.5,27.5c-0.5-0.3-1-0.6-1.5-0.9c-1.1-0.6-2.3-1-3.5-1.4v-39.8
	c4.3-2.3,7.2-6.8,7.2-11.9c0-7.4-6-13.5-13.5-13.5c-7.4,0-13.5,6-13.5,13.5c0,5.2,2.9,9.7,7.2,11.9v39.3c-1.6,0.4-3.1,0.9-4.6,1.6
	l-28-28c1.4-4.6,0.3-9.9-3.3-13.5c-5.3-5.3-13.8-5.3-19.1,0s-5.3,13.8,0,19.1c3.7,3.7,8.9,4.8,13.5,3.3l27.2,27.2
	c-0.6,0.8-1.1,1.7-1.6,2.6c-0.6,1.2-1,2.3-1.4,3.5h-39.4c-2.3-4.3-6.9-7.3-12.1-7.3c-7.6,0-13.7,6.1-13.7,13.7
	c0,7.6,6.1,13.7,13.7,13.7c5.3,0,9.8-3,12.1-7.3h38.9c0.4,1.8,1.1,3.6,2,5.3L198,296.7c-4.7-1.4-10-0.3-13.7,3.4
	c-5.4,5.4-5.4,14,0,19.4s14,5.4,19.4,0c3.7-3.7,4.8-9,3.4-13.7l27.5-27.5c0.5,0.3,1,0.6,1.6,0.9c1.2,0.6,2.4,1.1,3.6,1.4V320
	c-4.3,2.3-7.3,6.9-7.3,12.1c0,7.6,6.1,13.7,13.7,13.7c7.6,0,13.7-6.1,13.7-13.7c0-5.3-3-9.8-7.3-12.1v-38.8c1.9-0.5,3.6-1.1,5.3-2
	l27.8,27.8c-1.4,4.7-0.3,10,3.4,13.7c5.4,5.4,14,5.4,19.4,0s5.4-14,0-19.4c-3.7-3.7-9-4.8-13.7-3.4l-27.5-27.5
	c0.3-0.5,0.6-1,0.9-1.5c0.6-1.2,1.1-2.4,1.5-3.6H309c2.3,4.3,6.9,7.3,12.1,7.3c7.6,0,13.7-6.1,13.7-13.7
	C334.6,251.2,328.5,245.1,320.9,245.1z"></path>
</svg><style>@media (prefers-color-scheme: light) { :root { filter: none; } }
</style></svg>