<?xml version="1.0" standalone="no"?>
<!DOCTYPE svg PUBLIC "-//W3C//DTD SVG 20010904//EN"
 "http://www.w3.org/TR/2001/REC-SVG-20010904/DTD/svg10.dtd">
<svg version="1.0" xmlns="http://www.w3.org/2000/svg"
 width="700.000000pt" height="700.000000pt" viewBox="0 0 700.000000 700.000000"
 preserveAspectRatio="xMidYMid meet">
<metadata>
Created by potrace 1.14, written by Peter Selinger 2001-2017
</metadata>
<g transform="translate(0.000000,700.000000) scale(0.100000,-0.100000)"
fill="#000000" stroke="none">
<path d="M4275 6869 c-498 -64 -980 -427 -1258 -948 l-43 -80 -50 50 c-80 82
-222 198 -331 270 -275 181 -578 283 -879 296 -202 9 -343 -13 -546 -87 l-85
-31 -48 -182 c-26 -100 -51 -185 -55 -190 -3 -4 -89 -29 -189 -57 -101 -27
-184 -50 -186 -52 -1 -2 -16 -41 -34 -88 -142 -384 -111 -789 93 -1205 104
-211 207 -356 373 -526 l85 -86 -89 -47 c-501 -267 -857 -709 -952 -1181 -20
-101 -24 -165 -22 -330 l1 -90 166 -105 165 -105 -6 -115 c-3 -63 -8 -151 -11
-195 l-6 -80 64 -51 c188 -150 367 -235 603 -286 120 -26 398 -35 543 -18 207
24 426 89 631 186 63 30 117 54 121 54 3 0 12 -37 19 -82 62 -415 259 -801
547 -1078 171 -163 347 -266 567 -331 l108 -31 62 48 c34 26 103 80 153 120
l90 72 183 -70 183 -70 102 68 c358 242 587 670 637 1189 12 132 6 342 -15
470 -8 44 -13 81 -11 83 1 1 46 -5 100 -13 579 -87 1148 76 1500 429 93 93
225 268 225 297 0 7 -29 88 -65 181 -36 93 -65 173 -65 178 0 4 52 73 116 152
64 79 118 148 121 154 8 20 -69 248 -113 338 -232 461 -738 799 -1339 892 -60
10 -111 18 -113 19 -1 1 22 53 52 116 135 284 196 550 196 850 0 365 -95 653
-298 911 l-64 80 -166 -6 c-92 -4 -179 -9 -193 -12 -25 -5 -34 6 -133 159
l-107 164 -67 7 c-86 8 -178 6 -267 -5z m305 -391 c51 -79 103 -157 115 -173
l22 -30 144 7 c79 4 170 9 201 11 l57 5 40 -61 c253 -389 251 -937 -4 -1447
-80 -160 -175 -298 -289 -419 l-51 -53 37 6 c359 64 750 8 1083 -154 341 -166
569 -399 681 -698 l24 -63 -129 -159 -129 -159 74 -188 74 -187 -27 -41 c-15
-22 -61 -74 -103 -115 -337 -333 -916 -454 -1476 -310 -95 25 -185 57 -323
117 -10 5 -12 2 -8 -8 79 -181 137 -385 157 -560 18 -149 8 -404 -19 -542 -25
-125 -77 -281 -128 -381 -76 -151 -205 -312 -315 -392 l-49 -37 -190 72 c-105
39 -194 69 -198 66 -5 -2 -76 -59 -157 -126 -174 -141 -153 -137 -319 -55
-136 68 -216 128 -332 250 -231 241 -379 567 -428 943 -17 127 -19 311 -5 418
5 38 8 70 7 71 -1 1 -36 -27 -77 -62 -232 -200 -534 -350 -836 -414 -129 -28
-379 -38 -506 -20 -180 24 -350 85 -473 168 -81 54 -74 20 -61 292 l7 166
-171 109 -172 110 7 89 c42 589 562 1131 1249 1301 l128 31 -84 48 c-353 198
-667 574 -793 950 -86 256 -97 556 -28 742 l18 47 195 51 195 52 51 195 51
194 64 22 c139 47 366 55 544 18 203 -42 434 -144 614 -273 201 -143 402 -364
517 -566 15 -26 25 -35 28 -26 2 8 14 53 26 100 29 112 89 263 152 380 263
494 722 816 1179 829 l47 1 92 -142z"/>
<path d="M3346 4668 c-81 -18 -146 -97 -146 -178 0 -47 30 -110 69 -142 l31
-27 0 -264 0 -265 -32 -11 -32 -11 -189 187 c-180 181 -188 189 -182 220 19
102 -78 213 -185 213 -78 0 -159 -62 -180 -138 -12 -46 -12 -48 1 -95 13 -47
63 -106 106 -123 18 -8 54 -14 80 -14 l48 0 183 -183 182 -182 -17 -38 -17
-37 -272 0 -272 0 -16 25 c-43 65 -165 85 -242 40 -61 -36 -89 -86 -89 -160 0
-74 28 -124 89 -160 77 -45 199 -25 242 40 l16 25 268 0 268 0 11 -31 c11 -31
10 -32 -172 -220 l-182 -189 -52 0 c-89 0 -148 -37 -184 -115 -25 -54 -24 -92
7 -153 54 -109 184 -139 282 -65 47 36 74 95 70 154 l-3 49 185 185 186 186
37 -16 37 -15 0 -263 0 -263 -36 -34 c-72 -67 -85 -162 -35 -242 89 -140 303
-103 339 60 16 68 -14 156 -63 188 l-25 16 0 267 0 267 32 12 33 12 187 -187
188 -188 0 -53 c0 -111 78 -192 185 -192 88 0 164 61 183 148 27 117 -62 225
-186 227 l-52 0 -186 186 -186 186 16 32 17 31 265 0 265 0 27 -31 c53 -64
142 -85 217 -50 150 69 151 266 3 342 -73 37 -183 12 -229 -52 l-20 -29 -264
0 -263 0 -12 36 -12 36 186 187 186 186 58 0 c69 1 121 28 157 84 66 101 23
234 -90 277 -127 48 -255 -43 -255 -182 l0 -49 -184 -184 -184 -184 -31 13
-31 12 0 274 c0 262 1 274 20 284 36 19 70 92 70 149 0 58 -10 82 -49 124 -48
52 -107 71 -175 55z"/>
</g>
</svg>
