<?xml version="1.0" encoding="UTF-8"?>
<svg id="Layer_1" xmlns="http://www.w3.org/2000/svg" version="1.1" viewBox="0 0 400 400">
  <!-- Generator: Adobe Illustrator 29.0.0, SVG Export Plug-In . SVG Version: 2.1.0 Build 186)  -->
  <defs>
    <style>
      .st0 {
        fill: #f7b5cf;
      }
    </style>
  </defs>
  <path class="st0" d="M394.63,156.32c-6.73-7.96-72.22-87.52-164.03,25.71-1.22-1.22-3.06-2.45-4.9-3.67,80.18-123.02-16.53-160.97-25.71-164.03h-.61v.61c-9.18,3.06-105.88,41.62-25.71,164.03-1.84,1.22-3.06,1.84-4.9,3.06C76.98,68.19,10.88,148.36,5.37,156.32c0,.61-.61.61-.61.61h.61c0,9.79,6.73,112.62,146.89,75.28.61,1.84.61,3.06,1.22,4.9-135.87,52.02-80.18,139.55-74.67,147.5,0,.61.61.61.61.61v-.61c9.18,3.06,108.94,28.77,116.9-115.06h5.51c7.34,145.05,107.72,119.35,116.9,116.29h.61v-.61c5.51-7.96,60.59-94.87-73.44-146.89l1.84-5.51c140.77,37.95,146.89-65.49,147.5-75.28-.61-.61-.61-1.22-.61-1.22M223.87,230.38c-6.73-1.84-13.46-4.28-21.42-6.12l-.61-.61v.61h-.61l.61.61c-.61,7.34-.61,14.08-.61,20.81h-4.28c0-6.73,0-14.08-.61-21.42l.61-.61h-.61v-.61l-.61.61c-6.73,1.84-13.46,3.67-19.59,5.51-.61-1.22-1.22-2.45-1.22-3.67,6.12-2.45,12.85-4.28,20.2-7.34h.61v-.61h.61-1.84c-3.67-6.12-7.34-11.63-11.63-17.14,1.22-1.22,2.45-1.84,4.28-3.06,3.67,4.9,7.96,10.4,12.24,15.91v.61-.61s0,.61.61.61v-1.22c4.28-5.51,8.57-10.4,12.24-15.3,1.22.61,3.06,1.84,4.28,3.06-3.67,5.51-7.34,11.02-11.63,17.14h-.61.61s0,.61-.61.61l1.22-.61c6.73,2.45,13.46,4.9,19.59,7.34,0,2.45-.61,4.28-1.22,5.51"/>
</svg>