<svg xmlns="http://www.w3.org/2000/svg" version="1.1" xmlns:xlink="http://www.w3.org/1999/xlink" xmlns:svgjs="http://svgjs.dev/svgjs" width="1500" height="1223" viewBox="0 0 1500 1223"><g transform="matrix(1,0,0,1,-1.2886927955073588,-1.9725806451613153)"><svg viewBox="0 0 304 248" data-background-color="#ffffff" preserveAspectRatio="xMidYMid meet" height="1223" width="1500" xmlns="http://www.w3.org/2000/svg" xmlns:xlink="http://www.w3.org/1999/xlink"><g id="tight-bounds" transform="matrix(1,0,0,1,0.2611750732228302,0.4000000000000057)"><svg viewBox="0 0 303.47764985355434 247.2" height="247.2" width="303.47764985355434"><g><svg viewBox="0 0 397.4975999999999 323.7846568517215" height="247.2" width="303.47764985355434"><g><rect width="397.4975999999999" height="6.91717462437926" x="0" y="180.93773543820643" fill="#cd2f86" opacity="1" stroke-width="0" stroke="transparent" fill-opacity="1" class="rect-yte-0" data-fill-palette-color="primary" rx="1%" id="yte-0" data-palette-color="#cd2f86"></rect></g><g transform="matrix(1,0,0,1,0.9887999999999693,205.96269703740052)"><svg viewBox="0 0 395.52 117.82195981432099" height="117.82195981432099" width="395.52"><g id="textblocktransform"><svg viewBox="0 0 395.52 117.82195981432099" height="117.82195981432099" width="395.52" id="textblock"><g><svg viewBox="0 0 395.52 76.70320987654321" height="76.70320987654321" width="395.52"><g transform="matrix(1,0,0,1,0,0)"><svg width="395.52" viewBox="3.5 -37.5 198.48000000000002 37.7" height="76.70320987654321" data-palette-color="#cd2f86"><g class="wordmark-text-0" data-fill-palette-color="primary" id="text-0"><path d="M3.5-35L7.65-35 7.65-12.9 23.8-35 24.2-34.65 15.25-22.45 28.55 0 23.9 0 12.7-18.95 7.65-12 7.65 0 3.5 0 3.5-35ZM33.05 0.2Q32.4 0.2 31.92-0.28 31.45-0.75 31.45-1.43 31.45-2.1 31.9-2.55 32.35-3 33.02-3 33.7-3 34.17-2.53 34.65-2.05 34.65-1.4 34.65-0.75 34.17-0.28 33.7 0.2 33.05 0.2Z" fill="#cd2f86" data-fill-palette-color="primary"></path><path d="M56.25-18.4L56.25 0 52.1 0 52.1-35 56.25-35 56.25-18.9 72.5-18.9 72.5-35 76.65-35 76.65 0 72.5 0 72.5-18.4 56.25-18.4ZM103.35 0L101.8 0Q98.4 0 97.15-1.3L97.15-1.3Q96-2.4 96-3.2L96-3.2 96-4.25Q93.55 0.2 88.15 0.2L88.15 0.2Q81.85 0.2 81-5.5L81-5.5Q80.9-6.1 80.9-6.73 80.9-7.35 81.1-8.1 81.3-8.85 82.25-9.75L82.25-9.75Q84.15-11.55 90.6-11.95L90.6-11.95Q92.2-12.1 93.55-12.1 94.9-12.1 96-12L96-12 96-20.3Q95.9-20.35 96-20.78 96.1-21.2 95.82-21.88 95.55-22.55 95.1-23.2 94.65-23.85 93.5-24.33 92.35-24.8 90.5-24.8 88.65-24.8 86.17-24.13 83.7-23.45 82.55-22.8L82.55-22.8 82.35-23.15Q86.8-25.2 91.4-25.2L91.4-25.2Q96.55-25.2 98.2-23.35L98.2-23.35Q99.49-21.9 99.49-20.3L99.49-20.3 99.49-3.55Q99.49-2.1 100.07-1.33 100.65-0.55 101.24-0.5L101.24-0.5 101.8-0.4 103.35-0.4 103.35 0ZM88.95-0.2L88.95-0.2Q91.6-0.2 93.72-2.02 95.85-3.85 96-5.55L96-5.55 96-11.6Q94.65-11.7 93.27-11.7 91.9-11.7 90.55-11.55L90.55-11.55Q86.75-11.1 85.6-9.85 84.45-8.6 84.45-6.4L84.45-6.4Q84.45-6 84.5-5.5L84.5-5.5Q84.95-0.2 88.95-0.2ZM111.39-27.35L111.39-27.35 111.39-25 115.34-25 115.34-24.6 111.39-24.6 111.39 0 107.89 0 107.89-24.6 106.84-24.6 106.84-25 107.89-25 107.89-27.35Q107.89-32.8 110.24-35.13 112.59-37.45 117.84-37.5L117.84-37.5 117.84-37.1Q114.39-37.05 112.89-34.77 111.39-32.5 111.39-27.35ZM120.64-24.6L119.59-24.6 119.59-25 120.64-25 120.64-30 124.14-30 124.14-25 131.79-25 131.79-24.6 124.14-24.6 124.14-6.4Q124.14-3.15 124.87-1.7 125.59-0.25 127.92-0.25 130.24-0.25 132.64-1.2L132.64-1.2 132.79-0.8Q130.29 0.15 127.07 0.15 123.84 0.15 122.24-1.18 120.64-2.5 120.64-6.45L120.64-6.45 120.64-24.6ZM160.34 0L157.29 0Q155.24 0 154.16-0.9 153.09-1.8 153.04-2.7L153.04-2.7 152.99-3.55 152.99-19.25Q152.99-23.2 150.94-24.3L150.94-24.3Q149.89-24.8 148.34-24.8L148.34-24.8Q145.14-24.8 142.59-22.28 140.04-19.75 140.04-17.75L140.04-17.75 140.04 0 136.54 0 136.54-25 140.04-25 140.04-19.3Q140.89-21.45 143.19-23.33 145.49-25.2 148.24-25.2 150.99-25.2 152.71-24.68 154.44-24.15 155.24-23.2L155.24-23.2Q156.49-21.65 156.49-19.2L156.49-19.2 156.49-3.55Q156.49-2.1 157.06-1.33 157.64-0.55 158.24-0.5L158.24-0.5 158.79-0.4 160.34-0.4 160.34 0ZM166.24-12.2L166.24-12.2Q166.24-6 168.41-3.1 170.59-0.2 174.14-0.2L174.14-0.2Q179.14-0.2 183.04-1.7L183.04-1.7 183.19-1.35Q179.19 0.2 174.16 0.2 169.14 0.2 165.99-2.8 162.84-5.8 162.84-12.05 162.84-18.3 166.14-21.75 169.44-25.2 174.54-25.2L174.54-25.2Q178.64-25.2 181.44-22.75 184.24-20.3 184.24-15.5L184.24-15.5Q184.24-15.25 184.24-15L184.24-15 166.39-15Q166.24-13.65 166.24-12.2ZM180.84-15.4Q180.79-20.2 178.99-22.5 177.19-24.8 174.34-24.8 171.49-24.8 169.26-22.3 167.04-19.8 166.44-15.4L166.44-15.4 180.84-15.4ZM197.33-22.85L197.33-22.85 197.33-23.9Q195.08-23 193.23-20.28 191.38-17.55 191.28-15.15L191.28-15.15 191.28 0 187.78 0 187.78-25 191.28-25 191.28-17.05Q192.08-19.95 194.33-22.53 196.58-25.1 199.43-25.2L199.43-25.2 199.63-25.2Q200.63-25.2 201.31-24.53 201.98-23.85 201.98-22.85 201.98-21.85 201.31-21.2 200.63-20.55 199.63-20.55 198.63-20.55 197.98-21.2 197.33-21.85 197.33-22.85Z" fill="#000000" data-fill-palette-color="secondary"></path></g></svg></g></svg></g><g transform="matrix(1,0,0,1,0,94.81099685135803)"><svg viewBox="0 0 395.52 23.010962962962964" height="23.010962962962964" width="395.52"><g transform="matrix(1,0,0,1,0,0)"><svg width="395.52" viewBox="2.686119800002 -37.1 779.493880199998 45.35" height="23.010962962962964" data-palette-color="#000000"><path d="M48.3-37.1L48.3-37.1Q48.6-37.1 48.68-36.95 48.75-36.8 48.7-36.55L48.7-36.55 38.35-0.6Q38.2 0 37.5 0L37.5 0 35.6 0Q34.8 0 34.6-0.55L34.6-0.55 25.8-32Q25.75-32.2 25.7-32.2 25.65-32.2 25.6-32L25.6-32 16.6-0.6Q16.4 0 15.7 0L15.7 0 13.75 0Q13 0 12.8-0.55L12.8-0.55 2.7-36.5Q2.65-36.8 2.78-36.95 2.9-37.1 3.2-37.1L3.2-37.1 4.85-37.1Q5.2-37.1 5.33-37.02 5.45-36.95 5.55-36.65L5.55-36.65 14.55-4.4Q14.7-3.9 14.85-3.93 15-3.95 15.15-4.45L15.15-4.45 24.3-36.7Q24.35-36.85 24.5-36.98 24.65-37.1 25.05-37.1L25.05-37.1 26.65-37.1Q26.95-37.1 27.1-37.02 27.25-36.95 27.3-36.65L27.3-36.65 36.3-4.4Q36.45-3.9 36.6-3.93 36.75-3.95 36.9-4.45L36.9-4.45 46.1-36.7Q46.15-36.95 46.33-37.02 46.5-37.1 46.75-37.1L46.75-37.1 48.3-37.1ZM79.07-11.9L79.07-11.9Q79.07-9.2 80.37-6.85 81.67-4.5 83.89-3.1 86.12-1.7 88.82-1.7L88.82-1.7Q91.72-1.7 93.84-2.85 95.97-4 97.37-6.25L97.37-6.25Q97.52-6.5 97.64-6.53 97.77-6.55 97.92-6.4L97.92-6.4 99.32-5.6Q99.62-5.4 99.37-5.05L99.37-5.05Q98.17-3.2 96.59-1.98 95.02-0.75 93.07-0.13 91.12 0.5 88.72 0.5L88.72 0.5Q85.12 0.5 82.37-1.2 79.62-2.9 78.04-5.98 76.47-9.05 76.47-13.05L76.47-13.05Q76.47-17.45 78.07-20.55 79.67-23.65 82.44-25.33 85.22-27 88.72-27L88.72-27Q92.32-27 94.89-25.43 97.47-23.85 98.89-20.85 100.32-17.85 100.32-13.65L100.32-13.65Q100.32-13.3 100.27-12.98 100.22-12.65 99.62-12.6L99.62-12.6 79.42-12.6Q79.22-12.6 79.14-12.4 79.07-12.2 79.07-11.9L79.07-11.9ZM79.12-14.65L96.87-14.65Q97.42-14.65 97.57-14.8 97.72-14.95 97.72-15.35L97.72-15.35Q97.72-17.95 96.62-20.13 95.52-22.3 93.52-23.58 91.52-24.85 88.72-24.85L88.72-24.85Q85.57-24.85 83.42-23.33 81.27-21.8 80.19-19.45 79.12-17.1 79.12-14.65L79.12-14.65ZM133.93 0L133.13 0Q132.78 0 132.66-0.15 132.53-0.3 132.53-0.7L132.53-0.7 132.53-36.55Q132.53-37.1 133.03-37.1L133.03-37.1 134.58-37.1Q135.03-37.1 135.03-36.5L135.03-36.5 135.03-23.95Q135.03-23.45 135.18-23.43 135.33-23.4 135.68-23.7L135.68-23.7Q135.98-24 137.01-24.78 138.03-25.55 139.81-26.28 141.58-27 144.13-27L144.13-27Q147.98-27 150.36-25.18 152.73-23.35 153.86-20.25 154.98-17.15 154.98-13.35L154.98-13.35Q154.98-6.95 151.98-3.23 148.98 0.5 143.58 0.5L143.58 0.5Q141.08 0.5 139.38-0.25 137.68-1 136.68-1.95 135.68-2.9 135.33-3.35L135.33-3.35Q135.13-3.6 134.98-3.58 134.83-3.55 134.83-3.2L134.83-3.2 134.68-0.7Q134.68 0 133.93 0L133.93 0ZM135.03-20.65L135.03-8.9Q135.03-6.9 136.23-5.28 137.43-3.65 139.31-2.65 141.18-1.65 143.23-1.65L143.23-1.65Q145.73-1.65 147.81-2.9 149.88-4.15 151.11-6.73 152.33-9.3 152.33-13.35L152.33-13.35Q152.33-18.65 150.11-21.75 147.88-24.85 143.58-24.85L143.58-24.85Q140.93-24.85 138.71-23.63 136.48-22.4 135.03-20.65L135.03-20.65ZM225.76-37.1L225.76-37.1Q225.91-37.1 226.79-37.1 227.66-37.1 228.76-37.08 229.86-37.05 230.81-37.05 231.76-37.05 232.01-37.05L232.01-37.05Q238.96-37 243.24-34.98 247.51-32.95 249.44-28.98 251.36-25 251.36-18.95L251.36-18.95Q251.36-12.4 249.21-8.2 247.06-4 242.61-2 238.16 0 231.31 0L231.31 0 225.71 0Q225.21 0 225.21-0.55L225.21-0.55 225.21-36.55Q225.21-36.85 225.36-36.98 225.51-37.1 225.76-37.1L225.76-37.1ZM228.56-34.7L228.56-34.7Q228.06-34.7 228.06-34L228.06-34 228.06-2.85Q228.06-2.35 228.66-2.35L228.66-2.35 231.01-2.35Q237.26-2.35 241.09-3.95 244.91-5.55 246.64-9.13 248.36-12.7 248.36-18.55L248.36-18.55Q248.36-24.9 246.51-28.4 244.66-31.9 240.84-33.3 237.01-34.7 231.16-34.7L231.16-34.7 228.56-34.7ZM285.83-11.9L285.83-11.9Q285.83-9.2 287.13-6.85 288.43-4.5 290.66-3.1 292.88-1.7 295.58-1.7L295.58-1.7Q298.48-1.7 300.61-2.85 302.73-4 304.13-6.25L304.13-6.25Q304.28-6.5 304.41-6.53 304.53-6.55 304.68-6.4L304.68-6.4 306.08-5.6Q306.38-5.4 306.13-5.05L306.13-5.05Q304.93-3.2 303.36-1.98 301.78-0.75 299.83-0.13 297.88 0.5 295.48 0.5L295.48 0.5Q291.88 0.5 289.13-1.2 286.38-2.9 284.81-5.98 283.23-9.05 283.23-13.05L283.23-13.05Q283.23-17.45 284.83-20.55 286.43-23.65 289.21-25.33 291.98-27 295.48-27L295.48-27Q299.08-27 301.66-25.43 304.23-23.85 305.66-20.85 307.08-17.85 307.08-13.65L307.08-13.65Q307.08-13.3 307.03-12.98 306.98-12.65 306.38-12.6L306.38-12.6 286.18-12.6Q285.98-12.6 285.91-12.4 285.83-12.2 285.83-11.9L285.83-11.9ZM285.88-14.65L303.63-14.65Q304.18-14.65 304.33-14.8 304.48-14.95 304.48-15.35L304.48-15.35Q304.48-17.95 303.38-20.13 302.28-22.3 300.28-23.58 298.28-24.85 295.48-24.85L295.48-24.85Q292.33-24.85 290.18-23.33 288.03-21.8 286.96-19.45 285.88-17.1 285.88-14.65L285.88-14.65ZM359.05-26.5L359.05-26.5Q359.35-26.5 359.45-26.35 359.55-26.2 359.45-26L359.45-26 349.2-0.6Q348.95 0 348.2 0L348.2 0 347.25 0Q346.45 0 346.2-0.55L346.2-0.55 335.95-25.95Q335.9-26.2 336-26.35 336.1-26.5 336.4-26.5L336.4-26.5 337.95-26.5Q338.2-26.5 338.37-26.4 338.55-26.3 338.6-26.05L338.6-26.05 347.45-4.05Q347.8-3.1 348.25-4.1L348.25-4.1 357.1-26.1Q357.2-26.3 357.32-26.4 357.45-26.5 357.7-26.5L357.7-26.5 359.05-26.5ZM390.76-11.9L390.76-11.9Q390.76-9.2 392.06-6.85 393.36-4.5 395.59-3.1 397.81-1.7 400.51-1.7L400.51-1.7Q403.41-1.7 405.54-2.85 407.66-4 409.06-6.25L409.06-6.25Q409.21-6.5 409.34-6.53 409.46-6.55 409.61-6.4L409.61-6.4 411.01-5.6Q411.31-5.4 411.06-5.05L411.06-5.05Q409.86-3.2 408.29-1.98 406.71-0.75 404.76-0.13 402.81 0.5 400.41 0.5L400.41 0.5Q396.81 0.5 394.06-1.2 391.31-2.9 389.74-5.98 388.16-9.05 388.16-13.05L388.16-13.05Q388.16-17.45 389.76-20.55 391.36-23.65 394.14-25.33 396.91-27 400.41-27L400.41-27Q404.01-27 406.59-25.43 409.16-23.85 410.59-20.85 412.01-17.85 412.01-13.65L412.01-13.65Q412.01-13.3 411.96-12.98 411.91-12.65 411.31-12.6L411.31-12.6 391.11-12.6Q390.91-12.6 390.84-12.4 390.76-12.2 390.76-11.9L390.76-11.9ZM390.81-14.65L408.56-14.65Q409.11-14.65 409.26-14.8 409.41-14.95 409.41-15.35L409.41-15.35Q409.41-17.95 408.31-20.13 407.21-22.3 405.21-23.58 403.21-24.85 400.41-24.85L400.41-24.85Q397.26-24.85 395.11-23.33 392.96-21.8 391.89-19.45 390.81-17.1 390.81-14.65L390.81-14.65ZM446.73-36.55L446.73-0.65Q446.73-0.3 446.6-0.15 446.48 0 446.08 0L446.08 0 444.83 0Q444.23 0 444.23-0.55L444.23-0.55 444.23-36.55Q444.23-37.1 444.73-37.1L444.73-37.1 446.23-37.1Q446.73-37.1 446.73-36.55L446.73-36.55ZM491.55 0.5L491.55 0.5Q487.85 0.5 485.1-1.23 482.35-2.95 480.82-6.03 479.3-9.1 479.3-13.1L479.3-13.1Q479.3-17.2 480.85-20.33 482.4-23.45 485.17-25.23 487.95-27 491.6-27L491.6-27Q495.3-27 498.02-25.25 500.75-23.5 502.27-20.38 503.8-17.25 503.8-13.2L503.8-13.2Q503.8-9.15 502.27-6.08 500.75-3 498-1.25 495.25 0.5 491.55 0.5L491.55 0.5ZM491.65-1.7L491.65-1.7Q494.65-1.7 496.77-3.13 498.9-4.55 500.05-7.13 501.2-9.7 501.2-13.2L501.2-13.2Q501.2-16.7 500.02-19.3 498.85-21.9 496.7-23.38 494.55-24.85 491.6-24.85L491.6-24.85Q488.65-24.85 486.47-23.38 484.3-21.9 483.1-19.3 481.9-16.7 481.9-13.2L481.9-13.2Q481.9-9.75 483.1-7.15 484.3-4.55 486.47-3.13 488.65-1.7 491.65-1.7L491.65-1.7ZM538.21-26.5L538.21-26.5Q538.76-26.5 538.76-25.9L538.76-25.9 538.76-23.45Q538.76-23.05 538.91-23 539.06-22.95 539.36-23.25L539.36-23.25Q539.81-23.75 540.74-24.63 541.66-25.5 543.29-26.25 544.91-27 547.46-27L547.46-27Q550.61-27 553.16-25.53 555.71-24.05 557.24-21.13 558.76-18.2 558.76-13.75L558.76-13.75Q558.76-9.45 557.29-6.25 555.81-3.05 553.16-1.28 550.51 0.5 546.86 0.5L546.86 0.5Q544.36 0.5 542.54-0.28 540.71-1.05 539.56-2L539.56-2Q539.16-2.35 539.01-2.27 538.86-2.2 538.86-1.65L538.86-1.65 538.86 7.7Q538.86 8.25 538.36 8.25L538.36 8.25 536.81 8.25Q536.36 8.25 536.36 7.75L536.36 7.75 536.36-25.85Q536.36-26.25 536.49-26.38 536.61-26.5 537.01-26.5L537.01-26.5 538.21-26.5ZM538.86-5.35L538.86-5.35Q540.61-3.65 542.49-2.65 544.36-1.65 546.56-1.65L546.56-1.65Q549.36-1.65 551.51-3.05 553.66-4.45 554.91-7.13 556.16-9.8 556.16-13.55L556.16-13.55Q556.16-17.5 554.86-19.98 553.56-22.45 551.46-23.65 549.36-24.85 546.96-24.85L546.96-24.85Q544.56-24.85 542.71-23.8 540.86-22.75 539.86-21.2 538.86-19.65 538.86-18.2L538.86-18.2 538.86-5.35ZM591.93 0L591.93 0Q591.43 0 591.43-0.5L591.43-0.5 591.43-26Q591.43-26.5 591.88-26.5L591.88-26.5 593.33-26.5Q593.78-26.5 593.78-26.05L593.78-26.05 593.78-23Q593.78-22.75 593.88-22.7 593.98-22.65 594.18-22.85L594.18-22.85Q595.93-24.2 597.35-25.13 598.78-26.05 600.2-26.53 601.63-27 603.33-27L603.33-27Q606.43-27 608.15-25.63 609.88-24.25 610.43-22.65L610.43-22.65Q610.53-22.45 610.75-22.53 610.98-22.6 611.18-22.8L611.18-22.8Q612.88-24.15 614.33-25.1 615.78-26.05 617.2-26.53 618.63-27 620.33-27L620.33-27Q624.03-27 625.98-24.95 627.93-22.9 627.93-19.6L627.93-19.6 627.93-0.55Q627.93 0 627.43 0L627.43 0 625.93 0Q625.68 0 625.55-0.13 625.43-0.25 625.43-0.5L625.43-0.5 625.43-18.75Q625.43-21.6 624.13-23.2 622.83-24.8 619.98-24.8L619.98-24.8Q618.23-24.8 616.7-24.18 615.18-23.55 613.95-22.65 612.73-21.75 611.73-20.95L611.73-20.95Q611.33-20.6 611.13-20.3 610.93-20 610.93-19.45L610.93-19.45 610.93-0.55Q610.93 0 610.43 0L610.43 0 608.93 0Q608.68 0 608.55-0.13 608.43-0.25 608.43-0.5L608.43-0.5 608.43-18.75Q608.43-21.6 607.15-23.2 605.88-24.8 602.98-24.8L602.98-24.8Q600.58-24.8 598.6-23.68 596.63-22.55 593.93-20.3L593.93-20.3 593.93-0.5Q593.93 0 593.38 0L593.38 0 591.93 0ZM662.74-11.9L662.74-11.9Q662.74-9.2 664.04-6.85 665.34-4.5 667.57-3.1 669.79-1.7 672.49-1.7L672.49-1.7Q675.39-1.7 677.52-2.85 679.64-4 681.04-6.25L681.04-6.25Q681.19-6.5 681.32-6.53 681.44-6.55 681.59-6.4L681.59-6.4 682.99-5.6Q683.29-5.4 683.04-5.05L683.04-5.05Q681.84-3.2 680.27-1.98 678.69-0.75 676.74-0.13 674.79 0.5 672.39 0.5L672.39 0.5Q668.79 0.5 666.04-1.2 663.29-2.9 661.72-5.98 660.14-9.05 660.14-13.05L660.14-13.05Q660.14-17.45 661.74-20.55 663.34-23.65 666.12-25.33 668.89-27 672.39-27L672.39-27Q675.99-27 678.57-25.43 681.14-23.85 682.57-20.85 683.99-17.85 683.99-13.65L683.99-13.65Q683.99-13.3 683.94-12.98 683.89-12.65 683.29-12.6L683.29-12.6 663.09-12.6Q662.89-12.6 662.82-12.4 662.74-12.2 662.74-11.9L662.74-11.9ZM662.79-14.65L680.54-14.65Q681.09-14.65 681.24-14.8 681.39-14.95 681.39-15.35L681.39-15.35Q681.39-17.95 680.29-20.13 679.19-22.3 677.19-23.58 675.19-24.85 672.39-24.85L672.39-24.85Q669.24-24.85 667.09-23.33 664.94-21.8 663.87-19.45 662.79-17.1 662.79-14.65L662.79-14.65ZM716.71 0L716.71 0Q716.21 0 716.21-0.5L716.21-0.5 716.21-26Q716.21-26.5 716.66-26.5L716.66-26.5 718.11-26.5Q718.56-26.5 718.56-26.05L718.56-26.05 718.56-23Q718.56-22.75 718.66-22.7 718.76-22.65 718.96-22.85L718.96-22.85Q720.81-24.2 722.31-25.13 723.81-26.05 725.29-26.53 726.76-27 728.56-27L728.56-27Q732.51-27 734.59-24.95 736.66-22.9 736.66-19.6L736.66-19.6 736.66-0.55Q736.66 0 736.11 0L736.11 0 734.66 0Q734.41 0 734.29-0.13 734.16-0.25 734.16-0.5L734.16-0.5 734.16-18.75Q734.16-21.6 732.76-23.2 731.36-24.8 728.21-24.8L728.21-24.8Q726.51-24.8 725.06-24.28 723.61-23.75 722.11-22.78 720.61-21.8 718.71-20.3L718.71-20.3 718.71-0.5Q718.71 0 718.16 0L718.16 0 716.71 0ZM781.83-24.45L775.03-24.45Q774.63-24.45 774.63-24.05L774.63-24.05 774.63-6.4Q774.63-3.75 775.43-2.9 776.23-2.05 777.78-2.05L777.78-2.05 781.63-2.05Q781.83-2.05 781.93-1.98 782.03-1.9 782.03-1.7L782.03-1.7 782.03-0.65Q782.03-0.3 781.68-0.2L781.68-0.2Q781.33-0.15 780.48-0.1 779.63-0.05 778.8-0.03 777.98 0 777.58 0L777.58 0Q774.53 0 773.33-1.4 772.13-2.8 772.13-6L772.13-6 772.13-24.05Q772.13-24.45 771.78-24.45L771.78-24.45 767.28-24.45Q766.93-24.45 766.93-24.8L766.93-24.8 766.93-26.15Q766.93-26.5 767.28-26.5L767.28-26.5 771.83-26.5Q772.18-26.5 772.18-26.85L772.18-26.85 772.63-34.95Q772.63-35.5 773.08-35.5L773.08-35.5 774.18-35.5Q774.68-35.5 774.68-34.9L774.68-34.9 774.68-26.85Q774.68-26.5 775.03-26.5L775.03-26.5 781.83-26.5Q782.18-26.5 782.18-26.15L782.18-26.15 782.18-24.8Q782.18-24.45 781.83-24.45L781.83-24.45Z" opacity="1" transform="matrix(1,0,0,1,0,0)" fill="#000000" class="slogan-text-1" data-fill-palette-color="secondary" id="text-1"></path></svg></g></svg></g></svg></g></svg></g><g transform="matrix(1,0,0,1,114.0104846434398,0)"><svg viewBox="0 0 169.47663071312033 162.82994846339162" height="162.82994846339162" width="169.47663071312033"><g><svg xmlns="http://www.w3.org/2000/svg" xmlns:xlink="http://www.w3.org/1999/xlink" version="1.1" x="0" y="0" viewBox="19.7 16.8 63.8 61.297835980404216" enable-background="new 0 0 100 100" xml:space="preserve" height="162.82994846339162" width="169.47663071312033" class="icon-icon-0" data-fill-palette-color="accent" id="icon-0"><path d="M83.4 40C82.3 38.7 71.6 25.7 56.6 44.2 56.4 44 56.1 43.8 55.8 43.6 68.9 23.5 53.1 17.3 51.6 16.8H51.5V16.9C50 17.4 34.2 23.7 47.3 43.7 47 43.9 46.8 44 46.5 44.2 31.5 25.6 20.7 38.7 19.8 40 19.8 40.1 19.7 40.1 19.7 40.1H19.8C19.8 41.7 20.9 58.5 43.8 52.4 43.9 52.7 43.9 52.9 44 53.2 21.8 61.7 30.9 76 31.8 77.3 31.8 77.4 31.9 77.4 31.9 77.4V77.3C33.4 77.8 49.7 82 51 58.5H51.9C53.1 82.2 69.5 78 71 77.5H71.1V77.4C72 76.1 81 61.9 59.1 53.4L59.4 52.5C82.4 58.7 83.4 41.8 83.5 40.2 83.4 40.1 83.4 40 83.4 40M55.5 52.1C54.4 51.8 53.3 51.4 52 51.1L51.9 51V51.1H51.8L51.9 51.2C51.8 52.4 51.8 53.5 51.8 54.6H51.1C51.1 53.5 51.1 52.3 51 51.1L51.1 51H51V50.9L50.9 51C49.8 51.3 48.7 51.6 47.7 51.9 47.6 51.7 47.5 51.5 47.5 51.3 48.5 50.9 49.6 50.6 50.8 50.1H50.9V50H51 50.7C50.1 49 49.5 48.1 48.8 47.2 49 47 49.2 46.9 49.5 46.7 50.1 47.5 50.8 48.4 51.5 49.3V49.4 49.3S51.5 49.4 51.6 49.4V49.2C52.3 48.3 53 47.5 53.6 46.7 53.8 46.8 54.1 47 54.3 47.2 53.7 48.1 53.1 49 52.4 50H52.3 52.4S52.4 50.1 52.3 50.1L52.5 50C53.6 50.4 54.7 50.8 55.7 51.2 55.7 51.6 55.6 51.9 55.5 52.1" fill="#ffb7d1" data-fill-palette-color="accent"></path></svg></g></svg></g><g></g></svg></g><defs></defs></svg><rect width="303.47764985355434" height="247.2" fill="none" stroke="none" visibility="hidden"></rect></g></svg></g></svg>